<?xml version="1.0" encoding="UTF-8"?>
<svg xmlns="http://www.w3.org/2000/svg" viewBox="0 0 32 32" width="32" height="32">
  <!-- Squarecle background -->
  <rect x="2" y="2" width="28" height="28" rx="6" ry="6" fill="#f5f5f5" stroke="#e0e0e0" stroke-width="1"/>
  
  <!-- Cat body - moved even lower for enhanced peeking effect -->
  <path d="M 16 12 C 9 12, 4 16, 4 22 C 4 28, 2 30, 2 32 L 30 32 C 30 30, 28 28, 28 22 C 28 16, 23 12, 16 12 Z" fill="#212121"/>
  
  <!-- Left ear (adjusted for lower cat) -->
  <path d="M 6 19 L 10 10 L 16 17 Z" fill="#212121"/>
  
  <!-- Right ear (adjusted for lower cat) -->
  <path d="M 16 17 L 22 10 L 26 19 Z" fill="#212121"/>
  
  <!-- Eyes (moved up slightly within the cat for better peeking look) -->
  <circle cx="11" cy="18" r="2.8" fill="white"/>
  <circle cx="21" cy="18" r="2.8" fill="white"/>
  <circle cx="11" cy="18" r="1.6" fill="#212121"/>
  <circle cx="21" cy="18" r="1.6" fill="#212121"/>
  
  <!-- Nose -->
  <path d="M 15 21 L 17 21 L 16 22.5 Z" fill="white"/>
</svg>
