<svg xmlns="http://www.w3.org/2000/svg" viewBox="0 0 64 64" role="img" aria-label="Palm tree icon">
  <defs>
    <linearGradient id="sky" x1="0" y1="0" x2="1" y2="1">
      <stop offset="0%" stop-color="#9bf6ff" />
      <stop offset="100%" stop-color="#bdb2ff" />
    </linearGradient>
    <linearGradient id="trunk" x1="0" y1="0" x2="0.9" y2="1">
      <stop offset="0%" stop-color="#d79a44" />
      <stop offset="100%" stop-color="#b8691f" />
    </linearGradient>
  </defs>
  <rect width="64" height="64" rx="14" fill="url(#sky)" />

  <path
    d="M32 60c0-8 4-12 4-22 0-7-2-14-6-20l7-4c5 7 8 16 8 24 0 8-2 14-2 22z"
    fill="url(#trunk)"
  />
  <path d="M33 20l-5-11 9 6z" fill="#95a83a" />

  <ellipse cx="24" cy="16" rx="11" ry="4" transform="rotate(-22 24 16)" fill="#7e8f35" />
  <ellipse cx="41" cy="16" rx="12" ry="4" transform="rotate(20 41 16)" fill="#7e8f35" />
  <ellipse cx="22" cy="25" rx="11" ry="3.8" transform="rotate(-40 22 25)" fill="#7e8f35" />
  <ellipse cx="43" cy="25" rx="12" ry="3.8" transform="rotate(42 43 25)" fill="#7e8f35" />
  <ellipse cx="32" cy="12" rx="9" ry="3.5" fill="#7e8f35" />
  <ellipse cx="19" cy="17" rx="6.5" ry="1.6" transform="rotate(-22 19 17)" fill="#c5d941" />
  <ellipse cx="45" cy="17" rx="6.5" ry="1.6" transform="rotate(20 45 17)" fill="#c5d941" />
</svg>
