<?xml version="1.0" encoding="UTF-8"?>
<svg xmlns="http://www.w3.org/2000/svg" viewBox="0 0 32 32" width="32" height="32">
  <defs>
    <!-- Pink to purple gradient -->
    <linearGradient id="bgGradient" x1="0%" y1="0%" x2="100%" y2="100%">
      <stop offset="0%" style="stop-color:#ff69b4;stop-opacity:1" />
      <stop offset="100%" style="stop-color:#8b5cf6;stop-opacity:1" />
    </linearGradient>
  </defs>
  
  <!-- Larger squircle background -->
  <path d="M 6 2 
           C 2 2 2 2 2 6
           L 2 26
           C 2 30 2 30 6 30
           L 26 30
           C 30 30 30 30 30 26
           L 30 6
           C 30 2 30 2 26 2
           Z" 
           fill="url(#bgGradient)"/>
  
  <!-- Beaker design -->
  <g fill="white">
    <!-- Round bottom flask body -->
    <ellipse cx="16" cy="22" rx="9" ry="6"/>
    
    <!-- Flask neck (narrow cylinder) -->
    <rect x="14" y="11" width="4" height="8"/>
    
    <!-- Flask opening (wider top with rounded edges) -->
    <rect x="11" y="9" width="10" height="3" rx="1.5"/>
  </g>
  
  <!-- Simple stream of solid white bubbles with overlapping effect -->
  <g fill="white">
    <!-- Bubble inside squircle near opening -->
    <circle cx="16" cy="6" r="1.5"/>
    
    <!-- Small bubble moved right and lower -->
    <circle cx="18.5" cy="4" r="1"/>
    
    <!-- Top bubbles - with overlapping for organic layered effect -->
    <circle cx="15" cy="2.5" r="2"/>
    <circle cx="20" cy="1.5" r="1.5"/>
  </g>
</svg>
